<?xml version="1.0" encoding="UTF-8"?>
<svg version="1.1" xmlns="http://www.w3.org/2000/svg" width="1024" height="1024">
<path d="M0 0 C2.4962092 2.2966525 5.03419835 4.52920399 7.59765625 6.75 C11.03432384 9.78562021 14.02532099 13.00793704 16.98046875 16.5078125 C18.94438267 18.74378376 21.02669583 20.80059731 23.16015625 22.875 C27.17531109 26.84959772 30.76357048 31.03386495 34.2890625 35.4453125 C36.08784649 37.69168123 37.9033188 39.91108513 39.75 42.1171875 C88.75465841 100.92579419 118.60690507 174.85090259 127.78515625 250.5625 C127.9022998 251.47757324 128.01944336 252.39264648 128.14013672 253.33544922 C134.81437953 307.37400653 129.20193807 366.02931615 111.78515625 417.5625 C112.46578125 417.51609375 113.14640625 417.4696875 113.84765625 417.421875 C129.60203131 416.83527593 143.92029806 421.50823887 155.97265625 431.75 C169.16060611 444.24715249 175.71441479 458.99341686 176.74609375 476.9140625 C176.86120839 487.66576956 173.89559914 496.73753895 169.78515625 506.5625 C169.45515625 507.5525 169.12515625 508.5425 168.78515625 509.5625 C169.36523438 510.08457031 169.9453125 510.60664062 170.54296875 511.14453125 C182.73132368 522.62893829 188.50901762 537.48586573 189.03515625 554.125 C188.89841551 565.0779331 186.40447695 574.48266614 180.89453125 583.94140625 C178.76341837 588.97653562 181.34630166 593.23790835 183.28515625 598.0625 C188.81551881 611.82409986 188.43338856 626.8771109 182.78515625 640.5625 C182.42292969 641.44292969 182.06070313 642.32335937 181.6875 643.23046875 C178.68881744 649.78691029 174.52798073 655.16887442 169.78515625 660.5625 C169.2025 661.22894531 168.61984375 661.89539063 168.01953125 662.58203125 C137.17735238 695.50270479 85.42253183 709.28724361 43.78515625 722.5625 C42.6559375 722.92359863 41.52671875 723.28469727 40.36328125 723.65673828 C-11.36960587 739.99559904 -73.21080884 750.87393017 -127.21484375 741.5625 C-128.58842041 741.32853516 -128.58842041 741.32853516 -129.98974609 741.08984375 C-159.43249612 735.89151613 -191.21418893 725.3703157 -210.98095703 701.42285156 C-213.08848715 699.30463273 -213.08848715 699.30463273 -215.98999023 699.33789062 C-217.03227783 699.46357422 -218.07456543 699.58925781 -219.1484375 699.71875 C-220.30456543 699.84636719 -221.46069336 699.97398437 -222.65185547 700.10546875 C-223.8276416 700.25628906 -225.00342773 700.40710938 -226.21484375 700.5625 C-228.35148884 700.80273938 -230.48820659 701.04233346 -232.625 701.28125 C-233.70177002 701.40854492 -234.77854004 701.53583984 -235.88793945 701.66699219 C-269.39804887 705.57726931 -302.70237255 705.07490825 -336.1796875 701.18359375 C-338.19076384 700.97041255 -340.20243298 700.76269286 -342.21484375 700.5625 C-343.00818115 700.47572998 -343.80151855 700.38895996 -344.61889648 700.29956055 C-348.33415068 700.05847951 -349.95529109 700.36384381 -352.9453125 702.65234375 C-353.75613281 703.59207031 -354.56695312 704.53179688 -355.40234375 705.5 C-361.00242635 711.59507411 -367.13686099 716.24421945 -374.21484375 720.5625 C-374.82505371 720.93616699 -375.43526367 721.30983398 -376.06396484 721.69482422 C-394.09620528 732.49022984 -414.55060568 738.36731341 -435.21484375 741.5625 C-436.26744385 741.73604004 -436.26744385 741.73604004 -437.34130859 741.91308594 C-520.86286907 755.17422416 -617.60527258 726.16894898 -715.21484375 675.5625 C-719.76946084 672.13282549 -724.01857478 668.41770792 -728.21484375 664.5625 C-728.88644531 663.98371094 -729.55804687 663.40492188 -730.25 662.80859375 C-741.04676578 652.99558795 -748.64656082 638.13062493 -749.65234375 623.625 C-750.05324984 613.07279276 -749.58455817 602.08191301 -743.515625 593.02734375 C-741.98953776 590.65671352 -741.98953776 590.65671352 -742.37890625 588.0625 C-743.26037332 585.42633679 -744.34080782 583.04543204 -745.58984375 580.5625 C-753.10586007 564.28869074 -752.58660753 548.27858072 -747.21484375 531.5625 C-744.55728164 524.35190869 -740.4885987 519.22560812 -735.203125 513.69140625 C-733.07398389 511.52728334 -733.07398389 511.52728334 -731.21484375 508.5625 C-732.01476249 505.77408498 -732.01476249 505.77408498 -733.46484375 502.8125 C-739.52761421 489.52890181 -740.68553317 473.47675924 -736.58984375 459.3125 C-735.8553069 457.37322105 -735.0657175 455.45362693 -734.21484375 453.5625 C-733.81394531 452.63824219 -733.41304687 451.71398437 -733 450.76171875 C-726.05056057 436.52040375 -713.8852634 425.95923802 -699.1171875 420.40625 C-692.93194269 418.60811692 -686.56416819 417.60233973 -680.21484375 416.5625 C-680.43100342 415.78986816 -680.64716309 415.01723633 -680.86987305 414.22119141 C-685.80567442 396.46279421 -690.2097125 378.76814225 -693.21484375 360.5625 C-693.36791992 359.6461377 -693.52099609 358.72977539 -693.67871094 357.78564453 C-708.64350702 265.22249574 -688.14203861 168.39221721 -625.9296875 66.26171875 C-615.56110206 52.03326687 -604.73967412 38.22355089 -592.75390625 25.3203125 C-590.76997139 23.16545403 -588.85327861 20.98706898 -586.96484375 18.75 C-578.82834191 9.37233686 -569.74780924 0.50964136 -560.21484375 -7.4375 C-558.77431641 -8.67693359 -558.77431641 -8.67693359 -557.3046875 -9.94140625 C-493.26743814 -64.96521344 -414.67697529 -97.74657194 -331.21484375 -108.4375 C-330.2098584 -108.57027344 -329.20487305 -108.70304687 -328.16943359 -108.83984375 C-228.2741598 -121.44403211 -123.1550737 -91.75570248 0 0 Z M-455.38818359 -26.38769531 C-457.206133 -25.44203118 -459.03214247 -24.51351145 -460.859375 -23.5859375 C-482.9061074 -12.25955376 -503.37688956 2.11868648 -522.35205078 18.00830078 C-524.07500611 19.44582812 -525.81235886 20.86342301 -527.5546875 22.27734375 C-535.28683226 28.63557599 -542.43271678 35.57120819 -549.52734375 42.625 C-550.44660645 43.53499756 -551.36586914 44.44499512 -552.31298828 45.38256836 C-557.62897937 50.72305047 -562.54694307 56.23577032 -567.25610352 62.11791992 C-568.8271147 64.07859984 -570.42224348 65.99434449 -572.078125 67.8828125 C-631.93487566 136.42690655 -659.29730488 231.74352702 -653.69873047 321.59594727 C-652.2512986 341.50191263 -649.27196624 361.24859604 -644.21484375 380.5625 C-643.34859375 379.7375 -642.48234375 378.9125 -641.58984375 378.0625 C-629.03613382 367.34219192 -613.74202508 361.60900877 -597.21484375 362.5625 C-570.90146047 365.04905177 -549.80764537 377.93606936 -533.03515625 398.1953125 C-531.39549921 400.29591731 -529.78519154 402.40977158 -528.21484375 404.5625 C-527.55484375 403.9025 -526.89484375 403.2425 -526.21484375 402.5625 C-525.75464844 402.10746094 -525.29445313 401.65242188 -524.8203125 401.18359375 C-523.67715606 400.0293117 -522.55695723 398.85209926 -521.453125 397.66015625 C-510.65501981 386.24877125 -496.77788718 380.7292795 -481.21484375 379.5625 C-463.77697226 379.38635988 -448.31006971 385.15230991 -435.56542969 397.04785156 C-424.61055213 407.80237864 -417.58556505 421.66050545 -412.52734375 436 C-404.30086817 459.01028677 -390.4802286 481.54425714 -375.21484375 500.5625 C-374.46589844 501.51382813 -373.71695312 502.46515625 -372.9453125 503.4453125 C-368.91346961 508.48683325 -364.73188768 513.1807683 -360.10546875 517.6796875 C-357.63587403 520.13907728 -355.37718174 522.74648475 -353.11328125 525.39453125 C-351.75692729 526.94345398 -350.3614237 528.45844441 -348.94140625 529.94921875 C-325.51123429 554.67285446 -313.39103166 583.9049318 -313.8984375 617.94921875 C-314.33534578 630.66343252 -317.25104571 642.46893026 -322.359375 654.09375 C-323.52511346 656.64738036 -323.52511346 656.64738036 -322.21484375 659.5625 C-301.85272623 661.63247547 -281.56471088 661.91465294 -261.15234375 660.6875 C-260.39477783 660.64225189 -259.63721191 660.59700378 -258.85668945 660.55038452 C-248.99390014 659.94628201 -248.99390014 659.94628201 -239.21484375 658.5625 C-239.40095215 658.02520264 -239.58706055 657.48790527 -239.77880859 656.93432617 C-241.69803473 651.29986184 -243.34327824 645.63492962 -244.83984375 639.875 C-245.05640625 639.05966797 -245.27296875 638.24433594 -245.49609375 637.40429688 C-253.02269466 608.66847795 -247.11251098 580.34154754 -232.58984375 555 C-226.04368952 543.97670971 -217.89663089 534.08828194 -208.77026367 525.11181641 C-206.98881525 523.33735844 -205.33723344 521.48287963 -203.71484375 519.5625 C-201.55203323 517.00243857 -199.2791719 514.63546296 -196.8828125 512.296875 C-193.26476663 508.69890283 -190.10793468 504.87479121 -187.02734375 500.8125 C-186.47199951 500.081521 -185.91665527 499.35054199 -185.34448242 498.59741211 C-169.74413651 477.73728106 -156.58938045 454.33885757 -147.27734375 430 C-139.51949175 410.35511671 -128.33981443 394.55241054 -109.08984375 384.8125 C-91.78914641 377.44323259 -74.78786368 378.81389971 -57.53125 385.62109375 C-48.41811108 389.72982565 -41.25891384 396.70520889 -35.21484375 404.5625 C-31.68276115 401.08748875 -28.33447281 397.5055422 -25.02734375 393.8125 C-8.52663829 375.75313218 11.46622858 364.01624165 36.27807617 362.69287109 C50.36698881 362.12192589 62.56063738 366.16851956 74.04296875 374.328125 C75.77095328 375.61880691 75.77095328 375.61880691 77.78515625 376.5625 C79.58652855 367.5855723 81.24171447 358.58734708 82.78515625 349.5625 C83.048125 348.03254395 83.048125 348.03254395 83.31640625 346.47167969 C88.67132039 313.5054895 88.44842417 276.46338983 82.78515625 243.5625 C82.58647949 242.36077148 82.38780273 241.15904297 82.18310547 239.92089844 C76.47340382 206.05616613 66.55261385 173.57120154 51.78515625 142.5625 C51.3689502 141.68094238 50.95274414 140.79938477 50.52392578 139.89111328 C40.85673559 119.54162335 29.14575989 100.68502001 15.78515625 82.5625 C15.35638184 81.98064941 14.92760742 81.39879883 14.48583984 80.79931641 C-0.33699454 60.8292629 -17.33707833 41.76975227 -36.21484375 25.5625 C-37.23490383 24.66726888 -38.25439183 23.77138566 -39.2734375 22.875 C-95.33693119 -26.17547213 -165.58951312 -55.94205191 -239.21484375 -65.4375 C-240.53427979 -65.61539063 -240.53427979 -65.61539063 -241.88037109 -65.796875 C-314.28906827 -75.17414316 -390.95835008 -59.97219263 -455.38818359 -26.38769531 Z M-611.46484375 409.8125 C-615.88652215 416.76085177 -616.04602898 424.34114552 -614.78515625 432.26171875 C-611.78947736 445.22450209 -602.81459324 454.86596331 -594.21484375 464.5625 C-593.58368652 465.2834082 -592.9525293 466.00431641 -592.30224609 466.74707031 C-586.0121372 473.85290762 -579.33823532 480.52301383 -572.58984375 487.1875 C-560.2343163 499.39040035 -560.2343163 499.39040035 -554.82080078 505.74267578 C-551.88413248 509.07042365 -548.64851272 512.09891806 -545.46484375 515.1875 C-540.29064877 520.28658473 -535.38920391 525.4697724 -530.90234375 531.1875 C-530.24637207 532.02015381 -530.24637207 532.02015381 -529.57714844 532.86962891 C-526.11718652 537.40617658 -523.48745348 541.55200322 -522.71484375 547.25 C-523.21484375 550.5625 -523.21484375 550.5625 -525.15234375 552.5625 C-530.46858235 554.29841465 -534.72214551 553.59866598 -539.85546875 551.46484375 C-550.04890145 546.23706898 -558.26097387 538.5067363 -566.60449219 530.78588867 C-576.97149013 521.21546038 -587.97954656 512.57231468 -599.23242188 504.07324219 C-600.98687478 502.73622807 -602.72268129 501.3805513 -604.44921875 500.0078125 C-639.72832998 471.3892037 -639.72832998 471.3892037 -682.21484375 460.5625 C-688.24406919 462.73302116 -690.945274 466.3202575 -694.52734375 471.4375 C-696.1555255 476.47006176 -695.786827 480.91064012 -693.58984375 485.625 C-681.32468791 507.29904251 -652.16825972 519.94651142 -631.453125 532.140625 C-567.92516828 569.54624889 -567.92516828 569.54624889 -562.21484375 583.5625 C-561.56765698 588.8324494 -562.550573 592.01103747 -565.21484375 596.5625 C-570.83744756 596.07758111 -574.88141913 595.11646856 -579.96484375 592.5 C-580.6204126 592.16274902 -581.27598145 591.82549805 -581.95141602 591.47802734 C-596.17596189 584.03183371 -610.0986357 575.8611324 -623.85717773 567.58862305 C-658.73484753 545.91928009 -658.73484753 545.91928009 -698.21484375 539.5625 C-702.00867377 540.77182651 -703.7837144 542.95891891 -706.08984375 546.1875 C-707.84434997 551.45101866 -708.47530067 556.57993733 -706.265625 561.80859375 C-692.74210331 584.3762372 -661.73945202 592.57058746 -638.80859375 601.4296875 C-598.69254413 616.94831379 -598.69254413 616.94831379 -591.21484375 626.5625 C-590.1424172 630.44830528 -589.58835072 633.96957826 -591.0859375 637.77734375 C-592.21484375 639.5625 -592.21484375 639.5625 -594.21484375 640.5625 C-612.53127228 643.33452654 -631.56593651 629.39305017 -646.85693359 621.13574219 C-670.71097768 607.05238091 -670.71097768 607.05238091 -697.21484375 605.5625 C-701.52160085 607.9304218 -703.75030445 610.54051354 -705.77734375 615 C-706.4571157 620.5352859 -705.72693491 623.50180433 -702.4921875 627.91015625 C-661.48828094 676.05811912 -564.4360449 693.53684923 -504.21484375 699.5625 C-503.33231934 699.6553125 -502.44979492 699.748125 -501.54052734 699.84375 C-492.64831096 700.69250425 -483.76443789 700.80458513 -474.83984375 700.8125 C-473.65196762 700.81401062 -473.65196762 700.81401062 -472.44009399 700.81555176 C-442.90387864 700.79023745 -414.68878949 695.93519723 -390.21484375 678.5625 C-389.5290625 678.08296875 -388.84328125 677.6034375 -388.13671875 677.109375 C-371.10127345 663.89496416 -359.27502215 638.23047415 -356.21484375 617.5625 C-354.2531481 599.23739182 -362.01824908 581.53383268 -373.16821289 567.39477539 C-379.60905654 559.48566531 -386.61769393 552.06985749 -393.90234375 544.9375 C-398.75013746 540.12433338 -403.03596344 534.95913812 -407.21484375 529.5625 C-407.71612793 528.92119141 -408.21741211 528.27988281 -408.73388672 527.61914062 C-426.64420549 504.55257761 -442.37809194 478.47439259 -452.796875 451.12890625 C-459.45365231 433.96598593 -459.45365231 433.96598593 -473.08984375 422.5 C-477.75509545 421.03248393 -481.72114288 421.84279524 -486.21484375 423.5625 C-493.03696947 427.37019808 -496.80714058 435.53579659 -499.08984375 442.75 C-502.8345509 458.53126586 -499.49464285 473.87808479 -491.21484375 487.5625 C-484.53920186 497.27252457 -475.80975599 504.55946313 -466.49609375 511.625 C-464.27471212 513.51165289 -462.9425122 515.13503271 -461.46484375 517.625 C-460.85382813 518.63240234 -460.85382813 518.63240234 -460.23046875 519.66015625 C-458.00333185 523.83175498 -457.60025175 527.92672033 -458.21484375 532.5625 C-460.02968812 536.40997006 -461.57229692 538.15236372 -465.15234375 540.4375 C-472.41058797 543.02305481 -480.68814647 542.68754045 -487.65234375 539.5 C-496.13147537 535.12034419 -500.25722382 526.30364973 -504.58984375 518.25 C-523.18232352 484.44232611 -544.1925946 448.40886269 -571.21484375 420.5625 C-571.86324219 419.81742188 -572.51164063 419.07234375 -573.1796875 418.3046875 C-579.66188259 411.09615765 -589.04377061 405.79612508 -598.71484375 404.4375 C-604.22206165 404.25693548 -607.57694873 405.92460498 -611.46484375 409.8125 Z M3.55224609 425.56787109 C-1.77808755 431.58456436 -6.52341199 438.04334461 -11.21484375 444.5625 C-11.7979834 445.37058105 -12.38112305 446.17866211 -12.98193359 447.01123047 C-20.34020724 457.25634912 -27.34570277 467.66384774 -33.90917969 478.43408203 C-35.32102692 480.73559366 -36.754331 483.02275452 -38.19140625 485.30859375 C-42.97387602 492.93668458 -47.68993265 500.59053264 -52.16796875 508.40234375 C-52.66669243 509.27206818 -52.66669243 509.27206818 -53.17549133 510.15936279 C-54.79821446 512.99455716 -56.41131215 515.83480727 -58.0144043 518.68115234 C-67.33415225 535.08380706 -67.33415225 535.08380706 -73.33984375 538.5 C-73.98179687 538.88027344 -74.62375 539.26054688 -75.28515625 539.65234375 C-81.39397877 542.53363048 -89.24552506 542.72363615 -95.671875 540.84375 C-98.83625491 539.38778299 -100.89326349 537.92427779 -103.21484375 535.3125 C-104.84405729 530.83216278 -105.0572429 526.90393763 -103.453125 522.4453125 C-100.13207513 515.48817245 -95.63656442 510.90616286 -89.52734375 506.375 C-75.46117348 495.57689366 -65.38560299 482.36753268 -62.21484375 464.5625 C-60.75339399 451.6524941 -62.8426652 439.03311355 -70.6484375 428.37109375 C-73.86314048 424.6593544 -76.89848753 422.9281545 -81.58984375 421.625 C-87.62787877 421.52089595 -92.14096626 423.2894379 -96.71484375 427.25 C-103.82394667 434.95691385 -107.59257565 445.87195219 -111.40234375 455.5 C-122.19534057 482.51092793 -137.88108922 508.03970964 -156.21484375 530.5625 C-156.68341797 531.14531738 -157.15199219 531.72813477 -157.63476562 532.32861328 C-162.71805782 538.62865095 -168.06621652 544.5133316 -173.83984375 550.1875 C-190.50270311 566.58011135 -205.8478688 587.24064514 -206.58984375 611.5 C-205.80497913 635.45406835 -192.94110962 658.03654869 -176.21484375 674.5625 C-175.56 675.22765625 -174.90515625 675.8928125 -174.23046875 676.578125 C-158.93665743 691.0876383 -136.58289499 696.9486336 -116.21484375 699.5625 C-115.51576904 699.6553125 -114.81669434 699.748125 -114.09643555 699.84375 C-105.89086391 700.81124555 -97.65306278 700.80612904 -89.40234375 700.8125 C-88.61239014 700.81317474 -87.82243652 700.81384949 -87.00854492 700.81454468 C-62.0271541 700.78095404 -37.68681177 697.50716714 -13.21484375 692.5625 C-11.98008301 692.31516113 -10.74532227 692.06782227 -9.47314453 691.81298828 C10.46917869 687.74900966 29.54878704 682.14161505 48.78515625 675.5625 C50.65730063 674.93544666 52.52967196 674.30907023 54.40234375 673.68359375 C104.86319571 657.70799826 104.86319571 657.70799826 142.78515625 623.5625 C143.91861144 619.52456588 144.07263769 617.40803364 142.72265625 613.4375 C139.94634506 609.31781243 137.4542173 606.42219757 132.69921875 604.890625 C111.74431899 601.40974464 87.80465161 618.76545811 70.50219727 628.38793945 C48.32960891 640.631162 48.32960891 640.631162 37.22265625 640.8125 C35.79759766 640.85117187 35.79759766 640.85117187 34.34375 640.890625 C31.78515625 640.5625 31.78515625 640.5625 30.0078125 639.171875 C27.53812886 635.92104542 27.39565896 633.61327178 27.78515625 629.5625 C36.15181544 612.82918162 63.66948855 606.2582852 79.72265625 600.0625 C96.70975774 593.5354302 96.70975774 593.5354302 113.37109375 586.23046875 C114.03338486 585.92061035 114.69567596 585.61075195 115.3780365 585.29150391 C121.60108122 582.30094551 127.22348732 578.64519009 132.78515625 574.5625 C133.72101563 573.90314453 133.72101563 573.90314453 134.67578125 573.23046875 C139.58906618 569.52069048 142.85594135 564.35014469 144.78515625 558.5625 C145.55405649 552.05836024 144.76651914 547.80113539 140.78515625 542.5625 C136.24347711 538.95244735 131.16932517 538.93510973 125.56640625 539.10546875 C95.78238084 542.70539744 66.7934887 564.0140586 41.5859375 578.94873047 C11.09716694 597.00857007 11.09716694 597.00857007 4.06640625 596.28125 C1.78515625 595.5625 1.78515625 595.5625 0.47265625 593.4375 C-0.74558301 588.34304489 -0.98804005 584.39675856 1.59765625 579.75 C8.90239828 569.18966263 20.11464842 562.28096789 30.78515625 555.5625 C31.52958984 555.09005859 32.27402344 554.61761719 33.04101562 554.13085938 C44.02302705 547.17710443 55.18202934 540.54499138 66.41015625 534 C105.87106046 513.93785445 105.87106046 513.93785445 132.78515625 481.5625 C133.47795065 474.75002169 132.10546037 470.87164757 127.78515625 465.5625 C124.10230426 462.14270887 121.58611567 460.648158 116.5 460.40625 C74.91795848 462.15523177 27.72214061 509.03432616 -0.77734375 535.75 C-9.00807083 543.26659046 -19.91399392 553.10918127 -31.5390625 553.67578125 C-33.71484375 553.5 -33.71484375 553.5 -37.21484375 552.5625 C-39.43984545 549.22499745 -39.49869082 547.67527483 -38.86328125 543.78515625 C-34.70922909 529.54626663 -18.28757255 516.36918622 -7.96484375 506.25 C-5.70616272 504.02823602 -3.45087203 501.80310475 -1.19921875 499.57421875 C-0.66334137 499.04397598 -0.12746399 498.51373322 0.4246521 497.96742249 C3.81861571 494.58679423 7.01611879 491.09660372 10.12109375 487.44702148 C13.43685326 483.69198221 17.08277766 480.2530934 20.66015625 476.75 C27.16702365 470.30428861 33.24402528 463.86571061 38.78515625 456.5625 C39.5740625 455.57894531 40.36296875 454.59539063 41.17578125 453.58203125 C49.72992098 442.69619859 53.84018089 432.49273273 52.78515625 418.5625 C51.85889898 413.90766471 50.31233973 411.1387238 47.09765625 407.625 C31.03033119 397.62081647 13.84273994 414.39318999 3.55224609 425.56787109 Z " fill="#000000" transform="translate(793.21484375,195.4375)"/>
<path d="M0 0 C51.28804574 24.77989926 96.53694117 38.46387969 152.31742859 19.03105164 C165.27326781 14.41669797 177.59552942 8.48053101 189.93533325 2.43084717 C221.65808897 -13.05003156 221.65808897 -13.05003156 231.68533325 -9.63165283 C235.71638624 -5.93652093 236.61892586 -1.36480721 237.2204895 3.95037842 C238.35575649 38.45262299 223.72047853 75.82276354 200.93533325 101.43084717 C200.21732544 102.28033936 199.49931763 103.12983154 198.759552 104.00506592 C181.84027609 123.62902181 157.98517002 136.55819121 132.93533325 142.43084717 C132.25438599 142.59455811 131.57343872 142.75826904 130.87185669 142.92694092 C109.59541643 147.78668471 84.11592234 147.61475185 62.93533325 142.43084717 C61.72877075 142.14080811 60.52220825 141.85076904 59.27908325 141.55194092 C24.24525262 132.28967817 -2.77179462 110.66284912 -21.18966675 79.68084717 C-28.61890004 66.24819303 -34.45130788 52.36396305 -38.06466675 37.43084717 C-38.22837769 36.76295166 -38.39208862 36.09505615 -38.5607605 35.40692139 C-40.68217342 26.37995875 -41.35418617 17.50885738 -41.43966675 8.24334717 C-41.46057373 6.77260742 -41.46057373 6.77260742 -41.48190308 5.27215576 C-41.44620857 -0.08572871 -41.09496047 -3.95263129 -38.06466675 -8.56915283 C-28.15771625 -16.64148287 -9.49880312 -4.59796547 0 0 Z " fill="#000000" transform="translate(409.0646667480469,499.56915283203125)"/>
<path d="M0 0 C12.30102141 9.48622602 19.48094378 21.0643312 22.2578125 36.44921875 C23.33896142 46.87377048 22.10967084 56.53772446 17.62890625 66.02734375 C17.32984375 66.67832031 17.03078125 67.32929688 16.72265625 68 C15.12626539 70.91066093 13.78683124 71.96686184 10.69140625 73.15234375 C4.03624613 73.58170892 -2.79364102 70.33816613 -8.9296875 68.08984375 C-14.01166092 66.2578672 -17.94948745 65.40519221 -23.37109375 66.02734375 C-30.36041568 69.4506851 -34.96801016 76.07290473 -39.49609375 82.21484375 C-45.45732214 90.22623005 -45.45732214 90.22623005 -50.05859375 92.15234375 C-58.44362094 91.83592763 -65.1864879 86.09975652 -71.046875 80.54296875 C-81.68758116 69.02596914 -85.85381396 55.27912294 -85.58203125 39.875 C-84.80161267 25.63958706 -77.85613065 12.53971214 -67.37109375 3.02734375 C-47.72803956 -11.93469021 -20.76350982 -14.29569162 0 0 Z " fill="#000000" transform="translate(402.37109375,327.97265625)"/>
<path d="M0 0 C1.17175781 0.5259375 1.17175781 0.5259375 2.3671875 1.0625 C15.4226237 7.56763084 24.68716463 18.87563015 29.2734375 32.5546875 C33.32437608 46.18849155 31.99964763 61.31156366 25.4921875 73.921875 C19.58706753 83.86444908 11.16568493 93.38698082 -0.125 97 C-4.65133205 97 -7.40169104 95.54540985 -10.65234375 92.40234375 C-14.11790936 88.57529057 -17.06311656 84.49090505 -20 80.25 C-23.32909968 75.63407525 -25.64718831 73.00730438 -31 71 C-37.24046378 70.55095075 -41.67714974 71.64660057 -47.4375 73.9375 C-61.95294456 79.35166636 -61.95294456 79.35166636 -67.5625 76.86328125 C-70.57690667 74.55899923 -71.39766978 72.64632738 -72.75 69.125 C-73.36101563 67.58199219 -73.36101563 67.58199219 -73.984375 66.0078125 C-78.20714285 53.50192309 -77.41007335 37.9532299 -72 26 C-64.24883919 11.14524371 -52.70349418 2.37224801 -37 -3 C-25.47525004 -6.31143066 -10.70251779 -5.0996323 0 0 Z " fill="#000000" transform="translate(660,323)"/>
<path d="M0 0 C4.29140977 3.44179733 7.10575153 7.52649265 9.75 12.3125 C10.09160156 12.92738281 10.43320312 13.54226563 10.78515625 14.17578125 C14.41832176 22.06735472 13.8278938 31.92785493 11.3125 40.0625 C7.14312124 49.92664 0.07925049 55.80294256 -9.453125 60.25390625 C-18.73088992 63.76546252 -28.15811737 63.00607732 -37.25 59.3125 C-45.62362222 55.38736458 -52.17630847 48.66914277 -55.75 40.125 C-58.61958518 30.97819725 -58.60457506 21.29253772 -54.5078125 12.5546875 C-49.59258025 3.79275176 -42.89956232 -3.34850189 -32.99609375 -6.21484375 C-20.85575124 -8.30443329 -10.29508829 -6.94724943 0 0 Z " fill="#000000" transform="translate(782.25,380.6875)"/>
<path d="M0 0 C4.29140977 3.44179733 7.10575153 7.52649265 9.75 12.3125 C10.09160156 12.92738281 10.43320312 13.54226563 10.78515625 14.17578125 C14.41832176 22.06735472 13.8278938 31.92785493 11.3125 40.0625 C7.14312124 49.92664 0.07925049 55.80294256 -9.453125 60.25390625 C-18.73088992 63.76546252 -28.15811737 63.00607732 -37.25 59.3125 C-45.62362222 55.38736458 -52.17630847 48.66914277 -55.75 40.125 C-58.61958518 30.97819725 -58.60457506 21.29253772 -54.5078125 12.5546875 C-49.59258025 3.79275176 -42.89956232 -3.34850189 -32.99609375 -6.21484375 C-20.85575124 -8.30443329 -10.29508829 -6.94724943 0 0 Z " fill="#000000" transform="translate(286.25,380.6875)"/>
</svg>
